<?xml version="1.0" standalone="no"?>
<!DOCTYPE svg PUBLIC "-//W3C//DTD SVG 20010904//EN"
 "http://www.w3.org/TR/2001/REC-SVG-20010904/DTD/svg10.dtd">
<svg version="1.0" xmlns="http://www.w3.org/2000/svg"
 width="500.000000pt" height="500.000000pt" viewBox="0 0 500.000000 500.000000"
 preserveAspectRatio="xMidYMid meet">
<metadata>
Created by potrace 1.16, written by Peter Selinger 2001-2019
</metadata>
<g transform="translate(0.000000,500.000000) scale(0.100000,-0.100000)"
fill="#000000" stroke="none">
<path d="M2365 3713 c-132 -15 -320 -74 -435 -136 -319 -172 -537 -458 -622
-819 -31 -134 -31 -382 0 -516 113 -477 457 -821 934 -934 134 -31 382 -31
516 0 477 113 821 457 934 934 31 134 31 382 0 516 -113 477 -462 827 -934
933 -92 20 -305 33 -393 22z m415 -168 c301 -83 552 -287 688 -560 51 -103 88
-216 103 -317 17 -117 7 -343 -21 -443 -112 -412 -449 -721 -867 -795 -79 -14
-270 -14 -359 0 -409 64 -757 380 -869 790 -32 118 -44 307 -26 428 68 466
417 828 886 918 114 22 347 12 465 -21z"/>
<path d="M2481 3508 c-4 -13 -28 -79 -51 -147 l-43 -123 21 -17 c49 -38 48
-115 -3 -159 -42 -36 -68 -101 -74 -184 l-6 -78 -225 129 -225 129 -27 -46
c-31 -54 -44 -39 112 -129 388 -224 370 -212 370 -248 0 -35 -28 -65 -60 -65
-8 0 -49 20 -90 43 -41 24 -151 87 -243 140 -93 53 -171 97 -175 97 -4 0 -17
-19 -30 -42 -18 -34 -20 -44 -10 -54 11 -10 272 -163 390 -228 21 -12 38 -23
38 -26 0 -3 -20 -16 -45 -29 -66 -35 -121 -99 -140 -164 -22 -75 -43 -92 -115
-92 l-59 0 -90 -105 c-50 -58 -91 -111 -91 -117 0 -17 21 -16 131 6 52 10 111
22 131 25 32 6 40 13 57 51 27 61 54 72 135 56 79 -16 124 -8 204 36 l62 35 0
-261 0 -261 55 0 55 0 0 295 0 294 30 16 c28 15 33 14 60 -2 l30 -17 0 -293 0
-293 55 0 55 0 0 261 0 260 59 -31 c81 -44 123 -51 203 -38 85 15 112 4 138
-55 l19 -44 142 -27 c96 -19 145 -24 152 -17 6 6 -20 45 -83 118 l-93 108 -58
0 c-71 0 -92 17 -114 91 -19 65 -59 114 -131 156 -30 18 -54 35 -54 38 0 3 91
57 202 120 263 150 247 136 214 188 -14 23 -28 42 -30 42 -2 0 -60 -32 -128
-71 -294 -170 -366 -209 -379 -209 -31 0 -59 31 -59 65 0 36 -32 15 382 256
l127 73 -27 47 c-14 26 -29 46 -32 45 -3 -2 -81 -48 -175 -102 -93 -54 -194
-111 -222 -127 l-53 -29 0 74 c0 84 -18 130 -74 196 -44 54 -48 96 -11 140 14
17 25 36 25 43 0 25 -98 273 -109 277 -6 2 -15 -7 -20 -20z m59 -558 c17 -17
20 -33 20 -120 l0 -99 -30 -16 c-27 -14 -33 -14 -60 0 l-30 16 0 99 c0 87 3
103 20 120 11 11 29 20 40 20 11 0 29 -9 40 -20z m-3 -391 c31 -19 34 -25 31
-62 -2 -34 -8 -44 -35 -60 -32 -18 -34 -18 -65 0 -28 16 -34 26 -36 60 -3 36
0 43 30 62 40 25 34 25 75 0z m-229 -145 c18 -12 22 -24 20 -51 -3 -32 -9 -38
-90 -85 -82 -47 -88 -49 -115 -36 -24 11 -28 19 -28 53 0 39 1 41 80 87 88 53
100 55 133 32z m507 -24 c88 -49 97 -59 93 -102 -2 -25 -10 -36 -31 -46 -27
-13 -33 -11 -115 36 -81 47 -87 53 -90 85 -2 27 2 39 20 51 32 23 40 21 123
-24z"/>
</g>
</svg>
